HIERARCHY
ROOT Hips
{
 OFFSET 0.000000 0.000000 0.000000
 CHANNELS 6 Xposition Yposition Zposition Yrotation Xrotation Zrotation
 JOINT Chest
 {
  OFFSET 0.000000 9.588913 -0.003946
  CHANNELS 3 Yrotation Xrotation Zrotation
  JOINT Chest2
  {
   OFFSET 0.000000 9.541882 0.008053
   CHANNELS 3 Yrotation Xrotation Zrotation
   JOINT Chest3
   {
    OFFSET 0.000000 9.501360 0.000000
    CHANNELS 3 Yrotation Xrotation Zrotation
    JOINT Chest4
    {
     OFFSET 0.000000 9.491660 0.000000
     CHANNELS 3 Yrotation Xrotation Zrotation
     JOINT Neck
     {
      OFFSET 0.000000 14.331917 0.000000
      CHANNELS 3 Yrotation Xrotation Zrotation
      JOINT Head
      {
       OFFSET 0.000000 8.884799 0.017034
       CHANNELS 3 Yrotation Xrotation Zrotation
       End Site
       {
        OFFSET 0.000000 16.896195 0.008993
       }
      }
     }
     JOINT RightCollar
     {
      OFFSET -2.923010 9.499495 0.000000
      CHANNELS 3 Yrotation Xrotation Zrotation
      JOINT RightShoulder
      {
       OFFSET -13.795216 0.000000 0.000000
       CHANNELS 3 Yrotation Xrotation Zrotation
       JOINT RightElbow
       {
        OFFSET -30.272209 0.000000 0.000000
        CHANNELS 3 Yrotation Xrotation Zrotation
        JOINT RightWrist
        {
         OFFSET -24.478199 0.000000 0.000000
         CHANNELS 3 Yrotation Xrotation Zrotation
         End Site
         {
          OFFSET -18.090752 0.000000 0.000000
         }
        }
       }
      }
     }
     JOINT LeftCollar
     {
      OFFSET 2.923010 9.499495 0.000000
      CHANNELS 3 Yrotation Xrotation Zrotation
      JOINT LeftShoulder
      {
       OFFSET 13.795216 0.000000 0.000000
       CHANNELS 3 Yrotation Xrotation Zrotation
       JOINT LeftElbow
       {
        OFFSET 30.272209 0.000000 0.000000
        CHANNELS 3 Yrotation Xrotation Zrotation
        JOINT LeftWrist
        {
         OFFSET 24.478199 0.000000 0.000000
         CHANNELS 3 Yrotation Xrotation Zrotation
         End Site
         {
          OFFSET 18.090752 0.000000 0.000000
         }
        }
       }
      }
     }
    }
   }
  }
 }
 JOINT RightHip
 {
  OFFSET -7.826875 0.019532 0.001973
  CHANNELS 3 Yrotation Xrotation Zrotation
  JOINT RightKnee
  {
   OFFSET 0.000000 -40.546152 -0.001885
   CHANNELS 3 Yrotation Xrotation Zrotation
   JOINT RightAnkle
   {
    OFFSET 0.000000 -39.417092 -0.003189
    CHANNELS 3 Yrotation Xrotation Zrotation
    JOINT RightToe
    {
     OFFSET 0.000000 -7.579396 17.243563
     CHANNELS 3 Yrotation Xrotation Zrotation
     End Site
     {
      OFFSET 0.000000 -1.500329 6.694466
     }
    }
   }
  }
 }
 JOINT LeftHip
 {
  OFFSET 7.826875 0.019532 0.001973
  CHANNELS 3 Yrotation Xrotation Zrotation
  JOINT LeftKnee
  {
   OFFSET 0.000000 -40.546152 -0.001885
   CHANNELS 3 Yrotation Xrotation Zrotation
   JOINT LeftAnkle
   {
    OFFSET 0.000000 -39.417092 -0.003189
    CHANNELS 3 Yrotation Xrotation Zrotation
    JOINT LeftToe
    {
     OFFSET 0.000000 -7.579396 17.243563
     CHANNELS 3 Yrotation Xrotation Zrotation
     End Site
     {
      OFFSET 0.000000 -1.500329 6.694466
     }
    }
   }
  }
 }
}
MOTION
Frames: 5
Frame Time: 0.008333
0.000000 87.345680 0.000000 0.000000 -5.767889 0.000000 0.000000 11.653876 0.000000 0.000000 -5.885988 0.000000 0.000000 -0.000000 0.000000 0.000000 -0.000000 0.000000 0.000000 12.528808 0.000000 0.000000 0.711711 0.000000 0.000000 -0.000000 0.000000 0.000000 -0.000000 0.000000 2.309063 -0.000000 0.000000 -2.309063 -0.000000 -0.000000 0.000000 -0.000000 0.000000 0.000000 0.000000 0.000000 -2.309063 0.000000 0.000000 2.309063 -0.000000 0.000000 0.000000 8.520374 0.000000 0.000000 1.905768 0.000000 -0.000000 -4.658254 0.000000 0.000000 -0.000000 0.000000 0.000000 8.520374 0.000000 0.000000 1.905768 0.000000 -0.000000 -4.658254 0.000000 0.000000 -0.000000 0.000000
7.097381 88.415699 4.820098 38.694664 -6.514000 1.265721 2.113173 3.428660 0.829449 1.207491 1.965110 0.426573 1.511870 2.454944 0.539763 1.207491 1.965110 0.426573 4.330429 19.373702 -0.051375 4.643394 -5.139423 -1.046350 -4.706854 1.366095 -2.220112 -5.145770 2.114078 90.537323 7.334829 -8.963685 2.218598 4.422150 -5.074522 -4.831383 -7.358161 0.042061 0.725123 2.823126 -2.152764 -91.404597 -3.850184 0.256002 -3.718857 -2.390425 -5.979362 7.939200 3.839240 12.766932 -8.848787 -5.664700 0.826865 0.938280 -5.480451 -4.585373 7.006119 -0.002075 0.075189 -0.001522 6.368694 10.606178 7.512788 7.250101 -0.065546 -0.311123 0.999671 -4.044848 -5.101232 -0.012475 -0.096110 0.009377
7.105040 88.413868 4.819646 38.646210 -6.499284 1.270758 2.108576 3.425915 0.828582 1.204127 1.962930 0.426814 1.507663 2.452222 0.540040 1.204126 1.962930 0.426814 4.325916 19.382565 -0.039237 4.635750 -5.129871 -1.032316 -4.716966 1.367049 -2.227532 -5.067069 2.118926 90.518596 7.264076 -8.728425 2.161484 4.407863 -5.025730 -4.904383 -7.372097 0.047625 0.706459 2.841927 -2.140607 -91.424222 -3.808218 0.234669 -3.665774 -2.427306 -5.998592 8.002767 3.846605 12.750222 -8.866097 -5.649489 0.820350 0.946719 -5.465393 -4.585509 7.004745 -0.003622 0.080142 -0.000696 6.417103 10.609082 7.502721 7.230798 -0.083721 -0.303276 1.012784 -4.038102 -5.105096 -0.014074 -0.097667 0.008943
7.113370 88.411782 4.820578 38.591484 -6.486400 1.272376 2.106398 3.424153 0.829081 1.201940 1.961338 0.427306 1.504929 2.450234 0.540638 1.201940 1.961338 0.427306 4.318542 19.391493 -0.024121 4.624289 -5.120444 -1.014433 -4.726423 1.361569 -2.234318 -4.994563 2.125160 90.499199 7.181370 -8.492652 2.112197 4.379854 -4.978276 -4.954515 -7.384986 0.047930 0.691121 2.845368 -2.123574 -91.442017 -3.761454 0.224052 -3.613363 -2.434637 -6.003589 8.038738 3.864706 12.735546 -8.876366 -5.637766 0.814654 0.952054 -5.451173 -4.586816 7.003667 -0.004497 0.084783 0.000717 6.465722 10.615126 7.496667 7.219058 -0.099588 -0.296076 1.024259 -4.034798 -5.109370 -0.014111 -0.098213 0.008675
7.122396 88.409591 4.823092 38.531828 -6.478596 1.272871 2.106656 3.424113 0.830107 1.201184 1.960872 0.427680 1.503986 2.449651 0.541099 1.201184 1.960872 0.427680 4.307384 19.402009 -0.007495 4.608376 -5.109445 -0.994060 -4.738374 1.352336 -2.242511 -4.932013 2.129576 90.481813 7.087612 -8.266519 2.072856 4.343423 -4.935597 -4.982643 -7.398668 0.043928 0.678836 2.830885 -2.103595 -91.456295 -3.707733 0.218935 -3.563613 -2.413078 -5.991295 8.042763 3.891706 12.725684 -8.881305 -5.626763 0.811305 0.953157 -5.440538 -4.589969 7.003812 -0.005216 0.088853 0.002387 6.508489 10.629353 7.491454 7.218043 -0.115607 -0.289204 1.035405 -4.032715 -5.113061 -0.012944 -0.098674 0.007727
